<svg width="18" height="18" viewBox="0 0 18 18" fill="none" xmlns="http://www.w3.org/2000/svg">
<path fill-rule="evenodd" clip-rule="evenodd" d="M1.31245 0H6.93745C7.66132 0 8.25005 0.58873 8.25005 1.31245V4.68745C8.25005 5.41132 7.66132 6.00005 6.93745 6.00005H1.31245C0.58873 6.00005 0 5.41132 0 4.68745V1.31245C0 0.58873 0.58873 0 1.31245 0ZM1.31245 7.49995H6.93745C7.66132 7.49995 8.25005 8.08868 8.25005 8.81255V16.6875C8.25005 17.4113 7.66132 18 6.93745 18H1.31245C0.58873 18 0 17.4113 0 16.6875V8.81255C0 8.08868 0.58873 7.49995 1.31245 7.49995ZM16.6875 12H11.0625C10.3387 12 9.74995 12.5887 9.74995 13.3125V16.6875C9.74995 17.4113 10.3387 18 11.0625 18H16.6875C17.4113 18 18 17.4113 18 16.6875V13.3125C18 12.5887 17.4113 12 16.6875 12ZM11.0625 0H16.6875C17.4113 0 18 0.58873 18 1.31245V9.18745C18 9.91132 17.4113 10.5 16.6875 10.5H11.0625C10.3387 10.5 9.74995 9.91132 9.74995 9.18745V1.31245C9.74995 0.58873 10.3387 0 11.0625 0Z" fill="#063847"/>
</svg>
